<?xml version="1.0" encoding="UTF-8"?>
<svg id="Layer_1" data-name="Layer 1" xmlns="http://www.w3.org/2000/svg" viewBox="0 0 1080 1080">
  <defs>
    <style>
      .cls-1, .cls-2, .cls-3, .cls-4, .cls-5 {
        fill-rule: evenodd;
      }

      .cls-1, .cls-6 {
        fill: #0b2e4d;
      }

      .cls-2 {
        fill: #cb4745;
      }

      .cls-3 {
        fill: #78c143;
      }

      .cls-4 {
        fill: #f3c158;
      }

      .cls-5 {
        fill: #1db9ec;
      }
    </style>
  </defs>
  <g>
    <g>
      <path class="cls-1" d="M211.03,685.54H881.92c-49.85-18.99-308.01-25.95-370.39-30.21-44.91-3.07-68.6-51.55-69.62-91.96-7.46-53.02,5.48-91.5,38.82-115.43,35.96-30.51,79.1-41.9,129.41-34.17-52.07-16.33-108.9-2.81-148.05,35.2,12.23-30,40.03-52.6,71.6-69.75,28.67-2.3,57.51-1.62,86.05,2.03-23.54-6.4-47.84-9.46-72.2-9.11,24.3-11.71,49.77-20.53,71.46-27.28-53.36,7.47-110.48,29.36-155.88,71.51,2.33-37.94,16.24-74.26,39.86-104.05-21.06,13.77-36.06,35.06-41.93,59.53-18.64-24.67-38.15-48.67-58.5-71.95,16.78,28.18,34.74,55.64,53.84,82.31-3.64,20.33-11.01,39.81-21.74,57.46-18.86-41.49-49.22-76.7-87.48-101.46,30.98,32.62,56.51,70.03,75.58,110.78,.83,10.56-1.33,21.14-6.21,30.54-43.73-35.23-98.65-53.6-154.78-51.77,25,4.85,49.33,12.67,72.47,23.29-17.26,6.38-33.49,15.27-48.14,26.4,19.94-7.51,40.35-13.73,61.08-18.64,22.86,6.73,43.8,18.8,61.08,35.2-37.21,92.33,17.22,150.74-197.23,191.52"/>
      <path class="cls-3" d="M559.53,250.07c-15.04-3.76-34.69,5.69-44.8,17.44-9.58,11.14-9.03,22.54-3.88,35.88l33.56-35.74-30.32,38.52c13.96,3.1,25.32,1.94,34.9-9.2,10.11-11.75,16.51-32.6,10.55-46.91"/>
      <path class="cls-3" d="M677.95,312.17c-9.63-8.34-27.55-8.71-39.33-3.85-11.16,4.61-14.99,13.17-16.17,24.87l37.88-13.75-36.54,16.99c9.08,7.46,17.85,10.82,29.01,6.21,11.78-4.86,24.21-17.77,25.15-30.48"/>
      <path class="cls-5" d="M661.12,405.78c1.41-8.63-4.82-19.25-11.9-24.39-6.71-4.87-13.1-4.03-20.36-.51l21.66,17.21-23.08-15.26c-1.09,8,.09,14.33,6.8,19.2,7.08,5.14,19.1,7.77,26.87,3.74"/>
      <path class="cls-2" d="M638.28,434.64c1.5-5.98-2.25-13.8-6.92-17.83-4.43-3.81-8.96-3.6-14.27-1.55l14.21,13.36-15.31-12.07c-1.24,5.55-.78,10.07,3.65,13.89,4.67,4.02,12.96,6.58,18.66,4.21"/>
      <path class="cls-4" d="M585.19,455.94c9.27,.85,20.08-6.55,25.01-14.46,4.67-7.49,3.3-14.21-.99-21.66l-16.65,24.3,14.48-25.65c-8.58-.56-15.21,1.17-19.88,8.66-4.92,7.9-6.82,20.87-1.97,28.82"/>
      <path class="cls-4" d="M637.3,352.06c-6.17-.19-13.03,5.14-15.98,10.57-2.79,5.15-1.62,9.54,1.52,14.3l10.06-16.75-8.56,17.56c5.7,.03,10.02-1.38,12.82-6.52,2.94-5.43,3.68-14.09,.15-19.15"/>
      <path class="cls-4" d="M361.75,260.95c-3.96,11.18,1.8,26.84,10.02,35.4,7.79,8.11,16.51,8.52,27.05,5.57l-24.78-28.16,27.13,25.9c3.38-10.41,3.32-19.15-4.46-27.25-8.22-8.56-23.63-14.95-34.96-11.45"/>
      <path class="cls-5" d="M439.85,252.29c-11.82-1.04-25.54,8.44-31.78,18.53-5.91,9.56-4.14,18.12,1.36,27.58l21.09-31.02-18.32,32.74c10.92,.68,19.37-1.56,25.28-11.12,6.24-10.09,8.58-26.61,2.37-36.71"/>
      <path class="cls-4" d="M280.76,366.31c11.03,9.54,31.53,9.97,45.01,4.4,12.77-5.28,17.16-15.08,18.5-28.47l-43.35,15.74,41.81-19.45c-10.4-8.54-20.43-12.39-33.2-7.11-13.48,5.57-27.7,20.35-28.78,34.89"/>
      <path class="cls-4" d="M251.31,523.04c11.4,3.6,26.97-2.75,35.31-11.32,7.9-8.12,8.01-16.92,4.67-27.43l-27.51,25.93,25.15-28.22c-10.6-3.05-19.4-2.68-27.29,5.44-8.33,8.57-14.24,24.31-10.32,35.61"/>
      <path class="cls-3" d="M253.64,460c.84,7.45,8.45,14.75,15.48,17.33,6.66,2.45,11.73,.28,16.9-4.32l-21.86-9.14,22.57,7.21c-.96-6.85-3.41-11.79-10.07-14.25-7.03-2.59-17.55-1.95-23.02,3.16"/>
      <path class="cls-5" d="M194.91,392.14c-.11,15.78,13.95,32.96,28.01,40.14,13.31,6.8,24.47,3.53,36.43-4.78l-43.41-24.62,45.38,20.75c-.28-14.56-4.16-25.51-17.47-32.32-14.05-7.18-36.21-8.51-48.93,.83"/>
      <path class="cls-2" d="M275.95,376.38c-8.36,6.25-11.79,20.52-9.96,30.8,1.74,9.74,7.92,14.3,17.08,17.29l-4.37-32.71,7.2,32.21c7.56-5.96,11.79-12.39,10.05-22.12-1.83-10.28-9.99-22.48-19.99-25.46"/>
      <path class="cls-4" d="M241.75,456.25c6.88,2.96,16.99-.03,22.73-4.85,5.43-4.57,6.05-10.06,4.63-16.82l-18.78,14.45,17.45-16.03c-6.42-2.56-11.93-2.89-17.36,1.68-5.73,4.82-10.4,14.27-8.66,21.56"/>
      <path class="cls-5" d="M547.6,458.63c5.21-6.27,5.22-17.73,1.95-25.2-3.09-7.08-8.62-9.42-16.12-10.02l9.28,24.04-11.34-23.15c-4.65,5.91-6.69,11.55-3.6,18.63,3.26,7.47,11.68,15.25,19.82,15.69"/>
      <path class="cls-5" d="M538.3,335.16c0-8.15-7.3-16.98-14.58-20.65-6.9-3.47-12.65-1.75-18.8,2.57l22.49,12.59-23.5-10.59c.19,7.52,2.22,13.17,9.12,16.64,7.28,3.67,18.73,4.29,25.27-.57"/>
      <path class="cls-2" d="M463.94,272.96c10.53-2.15,23.86,4.99,30.5,13.43,6.3,8,5.58,15.88,1.6,24.97l-22.16-25.77,19.83,27.6c-9.76,1.73-17.59,.58-23.89-7.43-6.65-8.45-10.45-23.08-5.88-32.8"/>
      <path class="cls-4" d="M450.22,307.44c-6.17-.19-13.03,5.14-15.98,10.57-2.79,5.14-1.62,9.54,1.52,14.3l10.05-16.75-8.56,17.56c5.7,.03,10.02-1.38,12.82-6.52,2.95-5.43,3.68-14.09,.15-19.16"/>
      <path class="cls-5" d="M349.29,299.3c-7.37,3.57-12.14,14.05-12.25,22.24-.11,7.76,3.97,12.2,10.58,15.86l1.5-25.85,.75,25.88c6.71-3.47,10.92-7.79,11.03-15.55,.12-8.19-4.35-18.8-11.61-22.58"/>
      <path class="cls-3" d="M600.38,385.34c-3.56,4.65-3.23,12.88-.67,18.15,2.42,4.99,6.46,6.51,11.86,6.72l-7.36-16.99,8.81,16.29c3.17-4.38,4.47-8.49,2.04-13.48-2.56-5.27-8.83-10.61-14.68-10.69"/>
      <path class="cls-5" d="M584.05,278.66c-10.48,9.34-13.44,28.87-9.79,42.43,3.45,12.85,12.27,18.26,24.88,21.2l-9.64-43.35,13.37,42.34c9.44-8.87,14.36-17.97,10.91-30.82-3.64-13.56-15.98-28.98-29.74-31.82"/>
      <path class="cls-2" d="M318.15,498.91c-4.64-4.91-5.25-14.39-2.94-20.73,2.18-6.01,6.63-8.24,12.8-9.13l-6.41,20.37,8.16-19.73c4.16,4.64,6.14,9.2,3.96,15.21-2.3,6.35-8.85,13.23-15.56,14.02"/>
      <path class="cls-5" d="M342.09,394.45c-6.88,3.81-10.91,14.11-10.6,21.97,.29,7.45,4.44,11.49,10.97,14.66l.1-24.87,2.06,24.78c6.26-3.67,10.07-8.03,9.78-15.48-.31-7.86-5.14-17.81-12.31-21.06"/>
      <path class="cls-4" d="M637.21,265.96c-9.57,1.51-18.58,11.75-21.53,20.98-2.79,8.75,.31,15.18,6.53,21.6l10.58-28.76-8.04,29.57c8.79-1.62,15.04-5.07,17.84-13.82,2.95-9.23,1.54-22.79-5.39-29.57"/>
      <path class="cls-2" d="M676.81,359.21c-5.73-4.69-16.14-4.62-22.91-1.6-6.41,2.86-8.5,7.89-8.99,14.71l21.78-8.59-20.95,10.45c5.4,4.19,10.54,6,16.95,3.14,6.76-3.01,13.78-10.71,14.12-18.11"/>
      <path class="cls-4" d="M482.37,210.78c-11.27,8.87-15.5,28.6-12.63,42.65,2.72,13.32,11.37,19.38,24.05,23.17l-7.13-44.79,10.99,44c10.18-8.45,15.77-17.42,13.05-30.74-2.87-14.05-14.49-30.54-28.33-34.29"/>
      <path class="cls-2" d="M369.6,327.22c3.07-8.02,13.6-13.94,22.15-14.8,8.1-.81,13.1,3.06,17.52,9.64l-26.88,3.88,27.12-1.53c-3.02,7.32-7.16,12.11-15.26,12.92-8.54,.86-20.04-2.86-24.64-10.11"/>
      <path class="cls-3" d="M431.67,373.29c-7.7,1.57-14.63,10.2-16.69,17.79-1.95,7.19,.8,12.29,6.08,17.27l7.54-23.7-5.45,24.26c7.07-1.64,12.01-4.65,13.96-11.85,2.06-7.59,.42-18.53-5.44-23.77"/>
      <path class="cls-4" d="M379.99,429.48c-5.76-4.89-7.61-15.36-5.83-22.7,1.69-6.96,6.36-9.99,13.11-11.74l-4.62,23.45,6.64-22.96c5.2,4.65,7.97,9.48,6.28,16.44-1.78,7.34-8.22,15.81-15.58,17.51"/>
      <path class="cls-2" d="M292.7,264.7c-7.47,12.43-4.39,32.58,3.36,44.84,7.34,11.61,17.69,14.24,31.03,13.27l-22.8-39.78,26.17,37.64c6.59-11.64,8.65-22.12,1.31-33.73-7.75-12.25-24.64-23.67-39.07-22.25"/>
      <path class="cls-2" d="M388.01,218.11c-7.67,7.87-8.91,23.28-5.32,33.66,3.4,9.84,10.58,13.58,20.59,15.19l-9.9-33.31,12.76,32.32c6.89-7.44,10.23-14.81,6.83-24.65-3.59-10.39-14.07-21.75-24.96-23.21"/>
      <path class="cls-3" d="M237.79,318.74c-11.05,9.87-14.15,30.48-10.3,44.78,3.65,13.56,12.96,19.26,26.28,22.35l-10.21-45.73,14.15,44.67c9.96-9.37,15.14-18.97,11.49-32.53-3.86-14.31-16.89-30.57-31.41-33.54"/>
      <path class="cls-3" d="M343.15,257.65c-6.32,5.06-8.62,16.21-6.94,24.13,1.59,7.5,6.5,10.88,13.67,12.97l-4.22-25.25,6.4,24.79c5.71-4.82,8.82-9.9,7.23-17.41-1.68-7.92-8.31-17.17-16.14-19.22"/>
      <path class="cls-5" d="M259.23,313.91c7.25-5.67,20.19-5.29,28.51-1.35,7.88,3.73,10.34,10.05,10.76,18.53l-26.83-11.29,25.75,13.58c-6.83,5.06-13.27,7.16-21.15,3.43-8.32-3.94-16.82-13.7-17.04-22.9"/>
      <path class="cls-3" d="M461.99,207.08c-10.66-3.09-24.97,3.15-32.51,11.29-7.15,7.71-7.06,15.89-3.72,25.57l24.95-24.68-22.71,26.76c9.91,2.59,18.06,2.06,25.21-5.66,7.54-8.14,12.67-22.88,8.79-33.28"/>
      <path class="cls-2" d="M601.58,245.21c-8.53-3.64-21.04,.07-28.12,6.06-6.72,5.67-7.48,12.46-5.69,20.83l23.22-17.94-21.57,19.89c7.96,3.16,14.78,3.54,21.49-2.13,7.09-5.98,12.84-17.7,10.68-26.71"/>
      <path class="cls-2" d="M500.19,354.06c-4.68,3.52-6.59,11.53-5.55,17.29,.99,5.46,4.46,8.01,9.6,9.68l-2.49-18.35,4.08,18.06c4.23-3.36,6.59-6.97,5.61-12.42-1.04-5.76-5.63-12.6-11.25-14.26"/>
    </g>
    <g>
      <path class="cls-6" d="M551.71,618.94l8.51-9.63c-.83-5.29-1.73-11-2.61-16.62l-9.91,10.6,9.61-12.46c-2.4-15.27-4.62-29.45-5.04-32.18-.97-6.34-5.6-5.85-5.6-5.85,.49-.49-1.22,71.66-1.22,71.66l18.52,8.77s-1.25-7.97-2.94-18.71c-3.64,2.52-9.33,4.42-9.33,4.42Z"/>
      <rect class="cls-6" x="591.19" y="628.66" width="16.4" height="16.4"/>
      <rect class="cls-6" x="591.19" y="592.93" width="16.4" height="16.4"/>
      <rect class="cls-6" x="591.19" y="575.3" width="16.4" height="16.4"/>
      <g>
        <rect class="cls-6" x="600" y="610.79" width="16.4" height="16.4"/>
        <rect class="cls-6" x="582.38" y="610.79" width="16.4" height="16.4"/>
      </g>
      <path class="cls-6" d="M640.47,635.62s-15.28-3.42-20.35-2.63c-3.48,.54-13.39,9.19-16.88,10.18-1.64,.47-2.33,.72-6.11,.47-3.53-.23-6.58-3.29-8.46-2.82-2.47,.62-4.7,3.05,4.94,8.23,1.57,.84,2.82,2.35,4.47,3.53l22.57-12.22,20.71,5.33-.87-10.07Z"/>
      <path class="cls-6" d="M655.4,568.46c-16.43,2.67-12.64,14.13-12.64,14.13,.04,.1,.07,.19,.09,.28-1.57,.14-2.37,.08-2.37,.08,.85,.82,1.67,1.22,2.42,1.38-.49,1.37-2.83,1.16-3.26,1.98-.43,.81,1.83,3.15,1.83,3.15,0,0-.46,.75-.6,1.95-.04,.36,2.01,.53,2,.58-.14,.91-1.87,1.53-1.7,2.02,.13,.38,.48,.73,.61,1.16,.15,.5,.45,1.73,.77,2.29,.8,1.37,3.11,2.01,5.78,2.27,.38,.04,.76,.06,1.15,.08,1.12,1.57,3.12,5.13,1.34,8.65l16.01-5.68-2.69-6.09c9.79-5.47,10.26-11.4,10.26-16.42,0-5.46-2.6-14.48-19.03-11.81Z"/>
      <path class="cls-6" d="M676.01,573.8c1.77-1.6,1.76-4.21,1.76-4.21-.42,.75-1.21,1.34-2.09,1.8,.32-1.09,.42-1.94,.42-1.94-.45,.76-1.05,1.35-1.68,1.82-2.65-3.42-6.47-5.39-10.54-6.01-8.33-1.25-18.05,2.75-20.66,9.74,0,0,5.62-1.99,9.81,1.15,0,0-6.34-.49-7.36,1.81,0,0,11.18-.05,9.89,7.89,0,0,.62-1.61,1.83-2.5,1.06-.79,3.05-1.17,3.63,1.14,1.19,4.68-2.61,6.27-2.61,6.27,0,0,.2,6.31,6.85,7.35,0,0,.61-2,4.07-2.98,0,0,11.4-5.17,7.98-17.91-.33-1.24-.78-2.37-1.31-3.41Z"/>
      <path class="cls-6" d="M539.43,533.65s-1.94-6.29-1.77-11.01c.2-5.59,3.25-12.57,10.36-16.06,8.48-4.17,20.16,.79,24.39,9.49,.66,1.37,3.03,4.88,.2,10.16-1.03,1.92-2.48,2.49-3.08,4.85h0c.9,.28,2.62,.69,3.96-.21,.16-.11-.77,1.47-4.11,1.38-.03,.78,.08,1.55,.31,2.32,.32,1.07,1.47,2.5,1.47,3.61,.02,2.04-2.86,.26-3.34,2.23-.17,.68,.57,1.36,.04,1.94-.39,.41-2.65-.44-3.49-1.38,.17,1.23,3.05,2.61,1.2,3.97-.58,.43-1.32,.52-1.82,1.05-1.22,1.29-.47,1.7-1.22,3.12-.97,1.87-3.95,.21-5.54-.62-3.85-1.99-4.41-3.07-7.19-5.17-1.89-1.44-9.23,3.34-8.5,6.81,.98,4.63,4.3,17.65,3.93,19.01l-31.21-9.77c2.69-7.91,3.89-7.41,10.96-12.37,2.79-1.96,14.46-13.34,14.46-13.34Z"/>
      <path class="cls-6" d="M665.64,599.73s8.1,11.82,5.25,19.04c-3.66,9.3-.88,15.98-.66,16.63,.22,.66,8.97,19.48-3.28,24.51-13.72,5.64-29.62,2.07-29.62,2.07,0,0-1.19-5.51-1.45-7.76-.23-1.97,.65-10.28,.65-10.28,0,0,3.38,.51,3.28,.22-.44-1.31-.62-5.03-.84-8.97-.02-.27,6.31-.22,6.53-1.53,.81-4.85,1.75-16.63,1.75-16.63l2.63-8.54s.22-9.63,15.76-8.75Z"/>
      <path class="cls-6" d="M619.8,608.18c1,.27,1.44,.25,2.49,.36,.91,.05,.2-.73,.16-.79-.42-.78-1.75-.35-2.25-.65-1.33-.79-.88-2.17,.88-1.69,.63,.17,2.16-.44,2.76,.26,.89,1.03,2.06,2.1,2.73,2.7,1.05,.62,2.06,2.62,1.97,4.27-.04,.71,.06,1.22,.24,1.66,4.18,4.53,8.37,5.99,12.11,8.07,9.05-8.8,13.92-14.29,13.92-14.29,0,0,9.38-7.24,10.1,4.04,.92,14.59-25.9,21.74-25.9,21.74-6.53-3.04-10.53-11.23-14.04-16.09-1.61-.76-5.25-2.5-6.07-2.98-1.34-.79-.88-2.17,.88-1.69,.44,.12,.97,.32,1.54,.55-.8-.39-1.58-.79-2.07-1.08-1.33-.79-.89-2.17,.88-1.69,.9,.24,1.92,.18,2.71,.06-1.22-.19-3.07-.55-3.93-1.06-1.34-.79-.89-2.17,.88-1.69Z"/>
      <path class="cls-6" d="M585.67,641.76c-6.35-3.69-10.72-9.35-35.83-21.45-.31-.15-6.91-15.39,.24-24.45,1.15-1.45,11.21-13.05,6.83-19.46-2.01-2.93-7.32-7.11-8.53-10.21-1.23-3.12-.24-13.4-.24-13.4l-6.89-2.75s1.52,7.61,.31,9.51c-6.87,10.7-17.79-11.63-17.79-11.63,0,0-5.35,1.45-7.07,2.14-5.36,2.14-9.75,5.46-9.75,5.46,9.26,7.12,14.15,25.58,12.45,37.17-1.56,3.39-2.6,17.2-4.9,21.53-5.73,10.83-10.38,17.58-11.21,24.13-.64,5,0,8.84,1.43,11.82,5.33,.29,13.24-.85,20.75-3.28,17.31-5.61,27.3-4.39,27.3-4.39-7.07,.73-11.82,1.3-15.36,2.92-.5,.23-1.01,.46-1.52,.68l3.42,14.62c.83-.12,1.71-.26,2.63-.41,1.61,3.14,3.27,4.85,3.27,4.85,0,0,37.21-.55,42.41-5.61,1.46-1.42,4.15-14.25-1.95-17.79Z"/>
      <path class="cls-6" d="M604.12,570.08c.03-.35-11.24-.88-11.24-.88,0,0,1.59-.74,3.54-1.48,0,0,4.82,.63,5.14-1.33,.02-.11-6.06-.43-6.06-.43-2.5,.31-6.42,1.4-9.81,2.6-9.21,3.24-12.98,5.51-13.42,7.66,0,0,.02,.01,.03,.02-7.27,9.71-7.53,9.65-15.13,16.45-6.3,5.63-9.35,9.69-11.22,12.64-.08-.2-.16-.38-.24-.58,0,0-13.66-22.62-16.1-31.28-5.5-19.5-19.55-23.74-23.5-16.5-4.23,7.75,4.75,29.75,13.01,37.68,8.11,7.79,11.78,24.23,24.56,27.93,0,0,.02,0,.05-.01,0,.07,0,.13,0,.17,0,0,10.15-1.82,17.31-12.06,4.05-5.79,10.63-26.44,16.42-31.42,.76,.25,1.53,.39,2.22,.33l18.26-1.97s1.12-.14,2.35-1.58c1.14-1.35,2.27-3.07,2.27-3.07l-2.15-.86s3.56-.06,3.71-2.02Zm-13.44,5.92l1.94-.92,2.86,1.02-4.81-.1Z"/>
      <path class="cls-6" d="M638.5,644.19s0-.03,0-.03l-16.2-2.85c-10.72,3.94-19.77,11.77-24.59,12.42-7.95,1.07-8.87-4.37-11.43-6.39-4.11-3.24-6.67,7.56-5.45,9.92,1.82,3.51,9.54,7.48,9.54,7.48,3.26,3,7.26,.64,7.5-.49,.38-1.83,2.87-2.48,2.87-2.48,0,0,6.21-.42,15.44-.83,1.09-.05,6.55-.15,10.27-3.87,4.13,2.14,7.85,3.41,10.71,4.17-.33-1.58-1.09-5.27-1.29-7.02-.23-1.97,.65-10.28,.65-10.28,0,0,1.06,.16,1.97,.25Z"/>
      <path class="cls-6" d="M537.58,645.34c-1.66,.75-3.48,1.4-5.45,2.14-5.65,2.14-20.43,6.99-25.95,4.55-2.21-.98-4.48-3.35-6.5-5.27-3.12-2.97-6.49-4.8-9.8-1.21-3.26,3.54-3.95,6.11-10.24,7.72-2.76,.7-10.08,3.29-11.79,5.33-1.85,3.38,6.17,.78,15.38,.99,9.05,.21,13.88-1.12,25.1,.41,5.66,.77,13.83,1.29,19.6,1.38,5.99,.1,10.16,.44,14.96,.7-2.34-4.26-5.65-11.35-5.3-16.74Z"/>
      <path class="cls-6" d="M492.73,519.96c-.94,2.93-.19,9.11,6.1,10.42,3.28,.69,5.23-.93,6.38-2.8-1.35,.95-3.11,1.45-5.33,.91-2.71-.67-5.43-3.63-4.94-6.47,.24-1.38,1.83-4.2,3.55-3.55-1.43,.52-1.83,1.77-1.31,3.25,.75,2.14,3.45,2.3,5.24,1.39,2.57-1.32,4.05-4.2,4.95-6.89,0-.02,.03-.01,.04-.03,0-.03,0-.07,0-.1-.01,.04-.03,.09-.04,.13t0,0l.07-.36c.28-2.52,.61-5.11,.97-6.7,.95-4.33,1.82-10.51,6.51-18.32,7.51-12.49,22.25-11.33,29.7-5.68,8.68,6.57,8.64,14.44,8.49,16.35,8.49,1.37,12.13,3.41,15.16,6.13,6.57,5.89,5.18,14.05,5.18,14.05-4.47-2.92-10.36-3.67-12.36-.09-3.67,6.58-7.68,4.27-8.4,3.77,.25-.89,.55-3.21-2.19-4.33-1.77-.72-3.77,1.12-4.52,3.21-.59,1.63-.51,4.44,.55,6.16-.58,.89-1.09,1.66-1.85,2.09-3.67,2.12-6.48,1.24-6.48,1.24-12.27-18.5,6.36-28.96,10.12-30.83-4.4-5.66-11.29-5.62-16.02-1.83-5.53,4.44-8.26,13.6-5.68,16.72,3.53,4.26,5.57-1.6,5.57-1.6,.2,11.83-8.38,9.15-8.38,9.15,0,0-10.18,29.54-27.85,19.88-6.19-3.38-7.15-8.2-7.61-12.37-.81-7.41,4.36-12.89,4.36-12.89Z"/>
    </g>
  </g>
  <g>
    <path class="cls-6" d="M252.18,699.69v10.4h-14.12v42.89h-12.98v-42.89h-14.12v-10.4h41.22Z"/>
    <path class="cls-6" d="M266.8,750.93c-3.32-1.77-5.92-4.3-7.82-7.59-1.9-3.29-2.85-7.14-2.85-11.54s.96-8.19,2.88-11.5c1.92-3.31,4.56-5.86,7.9-7.63,3.34-1.77,7.08-2.66,11.24-2.66s7.9,.89,11.24,2.66c3.34,1.77,5.97,4.32,7.9,7.63,1.92,3.32,2.88,7.15,2.88,11.5s-.97,8.19-2.92,11.5c-1.95,3.32-4.61,5.86-7.97,7.63-3.37,1.77-7.12,2.66-11.27,2.66s-7.88-.88-11.2-2.66Zm17.54-11.31c1.75-1.82,2.62-4.43,2.62-7.82s-.85-6-2.54-7.82c-1.7-1.82-3.78-2.73-6.26-2.73s-4.63,.9-6.3,2.69c-1.67,1.8-2.51,4.42-2.51,7.86s.82,6,2.47,7.82c1.64,1.82,3.71,2.73,6.19,2.73s4.59-.91,6.34-2.73Z"/>
    <path class="cls-6" d="M306.96,720.26c1.64-3.29,3.88-5.82,6.72-7.59,2.83-1.77,6-2.66,9.49-2.66,2.78,0,5.33,.58,7.63,1.75,2.3,1.17,4.11,2.73,5.43,4.71v-19.66h12.98v56.18h-12.98v-6.07c-1.21,2.02-2.95,3.64-5.2,4.86-2.25,1.21-4.87,1.82-7.86,1.82-3.49,0-6.66-.9-9.49-2.7-2.83-1.8-5.07-4.35-6.72-7.67-1.65-3.31-2.47-7.15-2.47-11.5s.82-8.17,2.47-11.46Zm26.57,3.87c-1.8-1.87-3.99-2.81-6.57-2.81s-4.77,.92-6.57,2.77c-1.8,1.85-2.7,4.39-2.7,7.63s.9,5.81,2.7,7.71c1.8,1.9,3.99,2.85,6.57,2.85s4.77-.94,6.57-2.81c1.8-1.87,2.69-4.43,2.69-7.67s-.9-5.79-2.69-7.67Z"/>
    <path class="cls-6" d="M358.5,720.26c1.64-3.29,3.88-5.82,6.72-7.59,2.83-1.77,6-2.66,9.49-2.66,2.78,0,5.33,.58,7.63,1.75,2.3,1.17,4.11,2.73,5.43,4.71v-19.66h12.98v56.18h-12.98v-6.07c-1.21,2.02-2.95,3.64-5.2,4.86-2.25,1.21-4.87,1.82-7.86,1.82-3.49,0-6.66-.9-9.49-2.7-2.83-1.8-5.07-4.35-6.72-7.67-1.65-3.31-2.47-7.15-2.47-11.5s.82-8.17,2.47-11.46Zm26.57,3.87c-1.8-1.87-3.99-2.81-6.57-2.81s-4.77,.92-6.57,2.77c-1.8,1.85-2.7,4.39-2.7,7.63s.9,5.81,2.7,7.71c1.8,1.9,3.99,2.85,6.57,2.85s4.77-.94,6.57-2.81c1.8-1.87,2.69-4.43,2.69-7.67s-.9-5.79-2.69-7.67Z"/>
    <path class="cls-6" d="M423.14,696.8v56.18h-12.98v-56.18h12.98Z"/>
    <path class="cls-6" d="M472.26,734.91h-29.38c.2,2.63,1.05,4.64,2.54,6.04,1.49,1.39,3.33,2.09,5.5,2.09,3.24,0,5.49-1.37,6.76-4.1h13.82c-.71,2.78-1.99,5.29-3.83,7.52-1.85,2.23-4.16,3.97-6.95,5.24-2.78,1.27-5.9,1.9-9.34,1.9-4.15,0-7.85-.88-11.08-2.66-3.24-1.77-5.77-4.3-7.59-7.59-1.82-3.29-2.73-7.14-2.73-11.54s.9-8.25,2.7-11.54c1.8-3.29,4.31-5.82,7.55-7.59,3.24-1.77,6.96-2.66,11.16-2.66s7.74,.86,10.93,2.58c3.19,1.72,5.68,4.18,7.48,7.36,1.8,3.19,2.7,6.91,2.7,11.16,0,1.21-.08,2.48-.23,3.8Zm-13.06-7.21c0-2.23-.76-4-2.28-5.31-1.52-1.32-3.42-1.97-5.69-1.97s-4.01,.63-5.5,1.9c-1.49,1.27-2.42,3.06-2.77,5.39h16.25Z"/>
    <path class="cls-6" d="M498,712.17c2.28-1.34,4.81-2.01,7.59-2.01v13.74h-3.57c-3.24,0-5.67,.7-7.29,2.09-1.62,1.39-2.43,3.83-2.43,7.33v19.66h-12.98v-42.36h12.98v7.06c1.52-2.33,3.42-4.16,5.69-5.5Z"/>
    <path class="cls-6" d="M566.24,699.69v10.4h-14.12v42.89h-12.98v-42.89h-14.12v-10.4h41.22Z"/>
    <path class="cls-6" d="M612.47,734.91h-29.38c.2,2.63,1.05,4.64,2.54,6.04,1.49,1.39,3.33,2.09,5.5,2.09,3.24,0,5.49-1.37,6.76-4.1h13.82c-.71,2.78-1.99,5.29-3.83,7.52-1.85,2.23-4.16,3.97-6.95,5.24-2.78,1.27-5.9,1.9-9.34,1.9-4.15,0-7.85-.88-11.08-2.66-3.24-1.77-5.77-4.3-7.59-7.59-1.82-3.29-2.73-7.14-2.73-11.54s.9-8.25,2.69-11.54c1.8-3.29,4.31-5.82,7.55-7.59,3.24-1.77,6.96-2.66,11.16-2.66s7.74,.86,10.93,2.58c3.19,1.72,5.68,4.18,7.48,7.36,1.8,3.19,2.7,6.91,2.7,11.16,0,1.21-.08,2.48-.23,3.8Zm-13.06-7.21c0-2.23-.76-4-2.28-5.31-1.52-1.32-3.42-1.97-5.69-1.97s-4.01,.63-5.5,1.9c-1.49,1.27-2.42,3.06-2.77,5.39h16.25Z"/>
    <path class="cls-6" d="M619.42,720.26c1.64-3.29,3.88-5.82,6.72-7.59,2.83-1.77,6-2.66,9.49-2.66,2.99,0,5.6,.61,7.86,1.82,2.25,1.21,3.99,2.81,5.2,4.78v-6h12.98v42.36h-12.98v-6c-1.27,1.97-3.02,3.57-5.28,4.78s-4.87,1.82-7.86,1.82c-3.44,0-6.58-.9-9.41-2.7-2.83-1.8-5.07-4.35-6.72-7.67-1.65-3.31-2.47-7.15-2.47-11.5s.82-8.17,2.47-11.46Zm26.57,3.87c-1.8-1.87-3.99-2.81-6.57-2.81s-4.77,.92-6.57,2.77c-1.8,1.85-2.7,4.39-2.7,7.63s.9,5.81,2.7,7.71c1.8,1.9,3.99,2.85,6.57,2.85s4.77-.94,6.57-2.81c1.8-1.87,2.7-4.43,2.7-7.67s-.9-5.79-2.7-7.67Z"/>
    <path class="cls-6" d="M671.19,720.26c1.8-3.29,4.3-5.82,7.52-7.59,3.21-1.77,6.9-2.66,11.05-2.66,5.31,0,9.76,1.39,13.32,4.18,3.57,2.78,5.91,6.71,7.02,11.77h-13.82c-1.17-3.24-3.42-4.86-6.76-4.86-2.38,0-4.28,.92-5.69,2.77-1.42,1.85-2.13,4.49-2.13,7.93s.71,6.09,2.13,7.93c1.42,1.85,3.31,2.77,5.69,2.77,3.34,0,5.59-1.62,6.76-4.86h13.82c-1.11,4.96-3.47,8.86-7.06,11.69-3.59,2.83-8.02,4.25-13.29,4.25-4.15,0-7.83-.88-11.05-2.66-3.21-1.77-5.72-4.3-7.52-7.59-1.8-3.29-2.69-7.14-2.69-11.54s.9-8.25,2.69-11.54Z"/>
    <path class="cls-6" d="M754.74,714.98c2.93,3.21,4.4,7.63,4.4,13.25v24.75h-12.91v-23c0-2.83-.73-5.04-2.2-6.6-1.47-1.57-3.44-2.35-5.92-2.35s-4.45,.79-5.92,2.35c-1.47,1.57-2.2,3.77-2.2,6.6v23h-12.98v-56.18h12.98v19.51c1.32-1.87,3.11-3.37,5.39-4.48,2.28-1.11,4.83-1.67,7.67-1.67,4.86,0,8.75,1.61,11.69,4.82Z"/>
    <path class="cls-6" d="M807.88,734.91h-29.38c.2,2.63,1.05,4.64,2.54,6.04,1.49,1.39,3.33,2.09,5.5,2.09,3.24,0,5.49-1.37,6.76-4.1h13.82c-.71,2.78-1.99,5.29-3.83,7.52-1.85,2.23-4.16,3.97-6.95,5.24-2.78,1.27-5.9,1.9-9.34,1.9-4.15,0-7.85-.88-11.08-2.66-3.24-1.77-5.77-4.3-7.59-7.59-1.82-3.29-2.73-7.14-2.73-11.54s.9-8.25,2.69-11.54c1.8-3.29,4.31-5.82,7.55-7.59,3.24-1.77,6.96-2.66,11.16-2.66s7.74,.86,10.93,2.58c3.19,1.72,5.68,4.18,7.48,7.36,1.8,3.19,2.7,6.91,2.7,11.16,0,1.21-.08,2.48-.23,3.8Zm-13.06-7.21c0-2.23-.76-4-2.28-5.31-1.52-1.32-3.42-1.97-5.69-1.97s-4.01,.63-5.5,1.9c-1.49,1.27-2.42,3.06-2.77,5.39h16.25Z"/>
    <path class="cls-6" d="M833.62,712.17c2.28-1.34,4.81-2.01,7.59-2.01v13.74h-3.57c-3.24,0-5.67,.7-7.29,2.09-1.62,1.39-2.43,3.83-2.43,7.33v19.66h-12.98v-42.36h12.98v7.06c1.52-2.33,3.42-4.16,5.69-5.5Z"/>
    <path class="cls-6" d="M854.8,751.69c-2.88-1.26-5.16-3-6.83-5.2-1.67-2.2-2.61-4.67-2.81-7.4h12.83c.15,1.47,.83,2.66,2.05,3.57,1.21,.91,2.71,1.37,4.48,1.37,1.62,0,2.87-.32,3.76-.95,.88-.63,1.33-1.45,1.33-2.47,0-1.21-.63-2.11-1.9-2.7-1.27-.58-3.32-1.23-6.15-1.94-3.04-.71-5.57-1.45-7.59-2.24-2.02-.78-3.77-2.02-5.24-3.72-1.47-1.69-2.2-3.99-2.2-6.87,0-2.43,.67-4.64,2.01-6.64,1.34-2,3.31-3.58,5.92-4.75,2.61-1.16,5.71-1.75,9.3-1.75,5.31,0,9.5,1.32,12.56,3.95,3.06,2.63,4.82,6.12,5.28,10.48h-12c-.2-1.47-.85-2.63-1.94-3.49-1.09-.86-2.52-1.29-4.29-1.29-1.52,0-2.68,.29-3.49,.87-.81,.58-1.21,1.38-1.21,2.39,0,1.21,.65,2.12,1.94,2.73,1.29,.61,3.3,1.21,6.04,1.82,3.14,.81,5.69,1.61,7.67,2.39,1.97,.79,3.71,2.05,5.2,3.8,1.49,1.75,2.26,4.09,2.32,7.02,0,2.48-.7,4.7-2.09,6.64-1.39,1.95-3.39,3.48-6,4.59-2.61,1.11-5.63,1.67-9.07,1.67-3.69,0-6.98-.63-9.87-1.9Z"/>
    <path class="cls-6" d="M426.37,774.43v10.4h-14.12v42.89h-12.98v-42.89h-14.12v-10.4h41.22Z"/>
    <path class="cls-6" d="M451.57,786.92c2.28-1.34,4.81-2.01,7.59-2.01v13.74h-3.57c-3.24,0-5.67,.7-7.29,2.09-1.62,1.39-2.43,3.83-2.43,7.33v19.66h-12.98v-42.36h12.98v7.06c1.52-2.33,3.42-4.16,5.69-5.5Z"/>
    <path class="cls-6" d="M465.28,795c1.64-3.29,3.88-5.82,6.72-7.59,2.83-1.77,6-2.66,9.49-2.66,2.99,0,5.6,.61,7.86,1.82,2.25,1.21,3.99,2.81,5.2,4.78v-6h12.98v42.36h-12.98v-6c-1.27,1.97-3.02,3.57-5.28,4.78-2.25,1.21-4.87,1.82-7.86,1.82-3.44,0-6.58-.9-9.41-2.7-2.83-1.8-5.07-4.35-6.72-7.67-1.65-3.31-2.47-7.15-2.47-11.5s.82-8.17,2.47-11.46Zm26.57,3.87c-1.8-1.87-3.99-2.81-6.57-2.81s-4.77,.92-6.57,2.77c-1.8,1.85-2.7,4.39-2.7,7.63s.9,5.81,2.7,7.71c1.8,1.9,3.99,2.85,6.57,2.85s4.77-.94,6.57-2.81c1.8-1.87,2.69-4.43,2.69-7.67s-.9-5.79-2.69-7.67Z"/>
    <path class="cls-6" d="M517.88,778.95c-1.44-1.34-2.16-3-2.16-4.97s.72-3.71,2.16-5.05c1.44-1.34,3.3-2.01,5.58-2.01s4.06,.67,5.5,2.01c1.44,1.34,2.16,3.02,2.16,5.05s-.72,3.63-2.16,4.97c-1.44,1.34-3.28,2.01-5.5,2.01s-4.14-.67-5.58-2.01Zm12.03,6.42v42.36h-12.98v-42.36h12.98Z"/>
    <path class="cls-6" d="M577.02,789.73c2.96,3.21,4.44,7.63,4.44,13.25v24.75h-12.91v-23c0-2.83-.73-5.04-2.2-6.6-1.47-1.57-3.44-2.35-5.92-2.35s-4.45,.79-5.92,2.35c-1.47,1.57-2.2,3.77-2.2,6.6v23h-12.98v-42.36h12.98v5.62c1.32-1.87,3.09-3.35,5.31-4.44,2.23-1.09,4.73-1.63,7.52-1.63,4.96,0,8.92,1.61,11.88,4.82Z"/>
    <path class="cls-6" d="M591.45,778.95c-1.44-1.34-2.16-3-2.16-4.97s.72-3.71,2.16-5.05c1.44-1.34,3.3-2.01,5.58-2.01s4.06,.67,5.5,2.01c1.44,1.34,2.16,3.02,2.16,5.05s-.72,3.63-2.16,4.97c-1.44,1.34-3.28,2.01-5.5,2.01s-4.14-.67-5.58-2.01Zm12.03,6.42v42.36h-12.98v-42.36h12.98Z"/>
    <path class="cls-6" d="M650.58,789.73c2.96,3.21,4.44,7.63,4.44,13.25v24.75h-12.91v-23c0-2.83-.73-5.04-2.2-6.6-1.47-1.57-3.44-2.35-5.92-2.35s-4.45,.79-5.92,2.35c-1.47,1.57-2.2,3.77-2.2,6.6v23h-12.98v-42.36h12.98v5.62c1.32-1.87,3.09-3.35,5.31-4.44,2.23-1.09,4.73-1.63,7.52-1.63,4.96,0,8.92,1.61,11.88,4.82Z"/>
    <path class="cls-6" d="M688.01,786.58c2.25,1.21,3.99,2.81,5.2,4.78v-6h12.98v42.29c0,3.9-.77,7.43-2.32,10.59-1.54,3.16-3.9,5.68-7.06,7.55-3.16,1.87-7.1,2.81-11.81,2.81-6.28,0-11.36-1.48-15.26-4.44-3.9-2.96-6.12-6.97-6.68-12.03h12.83c.4,1.62,1.37,2.9,2.88,3.83,1.52,.94,3.39,1.4,5.62,1.4,2.68,0,4.82-.77,6.41-2.32,1.59-1.54,2.39-4.01,2.39-7.4v-6c-1.27,1.97-3.01,3.58-5.24,4.82-2.23,1.24-4.83,1.86-7.82,1.86-3.49,0-6.66-.9-9.49-2.7-2.83-1.8-5.07-4.35-6.72-7.67-1.65-3.31-2.47-7.15-2.47-11.5s.82-8.17,2.47-11.46c1.64-3.29,3.88-5.82,6.72-7.59,2.83-1.77,6-2.66,9.49-2.66,2.99,0,5.6,.61,7.86,1.82Zm2.5,12.3c-1.8-1.87-3.99-2.81-6.57-2.81s-4.77,.92-6.57,2.77c-1.8,1.85-2.7,4.39-2.7,7.63s.9,5.81,2.7,7.71c1.8,1.9,3.99,2.85,6.57,2.85s4.77-.94,6.57-2.81c1.8-1.87,2.7-4.43,2.7-7.67s-.9-5.79-2.7-7.67Z"/>
  </g>
</svg>